<svg width="151" height="72" viewBox="0 0 151 72" fill="none" xmlns="http://www.w3.org/2000/svg">
<path d="M99.3762 7.69324V44.9397C97.0701 48.5891 93.9898 51.6872 90.3533 54.0147V29.1513C90.3231 25.7984 89.2215 22.543 87.2095 19.8602L90.3533 16.7164L96.8312 10.245L99.3762 7.69324Z" fill="#263A96"/>
<path d="M99.3764 0V1.31696L85.8425 14.8463L84.0193 16.6678L80.9435 19.7436L74.564 26.1209L72.3086 23.8662L68.3477 19.9056L68.1845 19.7436L58.7747 10.3358L55.486 7.05366L49.7517 1.31696V0H61.1922L74.564 13.3673L87.9358 0H99.3764Z" fill="#263A96"/>
<path d="M85.8425 29.3133C85.8434 31.3507 85.2917 33.3502 84.2462 35.099C83.2006 36.8478 81.7004 38.2806 79.9051 39.2449C78.1098 40.2092 76.0866 40.6689 74.0507 40.5752C72.0148 40.4814 70.0425 39.8377 68.3435 38.7125C66.789 37.6857 65.5134 36.2897 64.6308 34.6495C63.7482 33.0092 63.286 31.1758 63.2857 29.3133C63.2804 27.1022 63.9323 24.9393 65.1586 23.0991L74.5609 32.4982L76.1398 30.9198L76.1809 30.8755L76.2079 30.8485L76.8163 30.2392L77.7501 29.3101L83.9664 23.0916C85.1926 24.9348 85.8454 27.0997 85.8425 29.3133Z" fill="#7185DD"/>
<path d="M61.9184 19.8613C59.9049 22.5432 58.8032 25.7992 58.7746 29.1524V54.0179C57.6237 53.2811 56.5258 52.4645 55.4892 51.5741C54.3432 50.5958 53.2767 49.5279 52.3 48.3806C51.3687 47.2973 50.5181 46.1472 49.7549 44.9397V7.69861L52.3 10.2418L58.7778 16.7174L61.9184 19.8613Z" fill="#7185DD"/>
<path d="M80.9435 19.7436L84.0192 16.6678L85.8424 14.8463L99.3763 1.31696V0H87.9358L74.564 13.3673V26.1209L80.9435 19.7436Z" fill="#7185DD"/>
<path d="M76.8195 40.3622C78.2335 40.0759 79.578 39.517 80.7782 38.7168C82.0146 37.9011 83.0779 36.8498 83.9075 35.6229C84.737 34.3961 85.3164 33.0177 85.6126 31.5668C85.9089 30.1159 85.916 28.6208 85.6337 27.1671C85.3514 25.7134 84.7852 24.3296 83.9674 23.0948L77.7522 29.3134L76.8185 30.2425L76.21 30.8507L76.183 30.8788L76.1419 30.9231L74.563 32.5015V40.588C75.3209 40.5889 76.0769 40.5132 76.8195 40.3622V40.3622Z" fill="#263A96"/>
<path d="M9.7002 67.9805H6.33252V67.5991C6.45426 67.5955 6.61003 67.583 6.7998 67.5615C6.99316 67.54 7.12565 67.5096 7.19727 67.4702C7.30827 67.4022 7.38883 67.3252 7.43896 67.2393C7.49268 67.1497 7.51953 67.0387 7.51953 66.9062V61.3633H7.43896L4.83936 67.8569H4.5708L2.09473 61.229H2.0249V65.7783C2.0249 66.2188 2.05176 66.5535 2.10547 66.7827C2.16276 67.0119 2.2487 67.1766 2.36328 67.2769C2.44206 67.3521 2.60498 67.4237 2.85205 67.4917C3.09912 67.5597 3.26025 67.5955 3.33545 67.5991V67.9805H0.257812V67.5991C0.418945 67.5848 0.58724 67.5579 0.762695 67.5186C0.941732 67.4792 1.07959 67.4201 1.17627 67.3413C1.3016 67.241 1.38753 67.0871 1.43408 66.8794C1.48063 66.6717 1.50391 66.3244 1.50391 65.8374V61.938C1.50391 61.7124 1.47705 61.528 1.42334 61.3848C1.36963 61.2415 1.29264 61.1252 1.19238 61.0356C1.08138 60.939 0.945312 60.8674 0.78418 60.8208C0.623047 60.7743 0.463704 60.7474 0.306152 60.7402V60.3589H2.90576L5.08643 66.0737L6.9502 61.2935C7.01823 61.118 7.07552 60.9354 7.12207 60.7456C7.1722 60.5522 7.19906 60.4233 7.20264 60.3589H9.68945V60.7402C9.58919 60.7438 9.46029 60.7599 9.30273 60.7886C9.14876 60.8172 9.03597 60.8441 8.96436 60.8691C8.84261 60.9121 8.76025 60.9837 8.71729 61.084C8.67432 61.1842 8.65283 61.2935 8.65283 61.4116V66.9062C8.65283 67.0316 8.67432 67.1372 8.71729 67.2231C8.76025 67.3091 8.84261 67.3843 8.96436 67.4487C9.02881 67.4845 9.14339 67.5186 9.30811 67.5508C9.47282 67.5794 9.60352 67.5955 9.7002 67.5991V67.9805ZM19.0867 61.2612C19.4233 61.6121 19.6865 62.0365 19.8763 62.5342C20.066 63.0283 20.1609 63.5762 20.1609 64.1777C20.1609 64.7829 20.0643 65.3325 19.8709 65.8267C19.6775 66.3208 19.409 66.7415 19.0652 67.0889C18.7322 67.4326 18.3455 67.6976 17.9051 67.8838C17.4646 68.07 16.9956 68.1631 16.4979 68.1631C15.9679 68.1631 15.4773 68.0646 15.0262 67.8677C14.5786 67.6672 14.1937 67.3896 13.8714 67.0352C13.5491 66.6878 13.2949 66.2671 13.1087 65.7729C12.9261 65.2752 12.8348 64.7435 12.8348 64.1777C12.8348 63.5583 12.9314 63.0068 13.1248 62.5234C13.3182 62.0365 13.5849 61.6157 13.9251 61.2612C14.2617 60.9103 14.652 60.6418 15.096 60.4556C15.5436 60.2694 16.0109 60.1763 16.4979 60.1763C17.0027 60.1763 17.479 60.2712 17.9266 60.4609C18.3742 60.6507 18.7609 60.9175 19.0867 61.2612ZM18.2864 66.6646C18.4869 66.3387 18.632 65.9699 18.7215 65.5581C18.8146 65.1463 18.8611 64.6862 18.8611 64.1777C18.8611 63.6549 18.8092 63.1751 18.7054 62.7383C18.6051 62.3014 18.4565 61.929 18.2596 61.6211C18.0626 61.3167 17.8156 61.0804 17.5184 60.9121C17.2212 60.7402 16.881 60.6543 16.4979 60.6543C16.0682 60.6543 15.7029 60.7528 15.4021 60.9497C15.1014 61.1466 14.8561 61.4098 14.6663 61.7393C14.4873 62.0544 14.353 62.4232 14.2635 62.8457C14.1775 63.2682 14.1346 63.7122 14.1346 64.1777C14.1346 64.6934 14.1811 65.1589 14.2742 65.5742C14.3673 65.9896 14.5141 66.3584 14.7146 66.6807C14.908 66.9958 15.1515 67.2428 15.4451 67.4219C15.7387 67.5973 16.0896 67.6851 16.4979 67.6851C16.881 67.6851 17.2265 67.5955 17.5345 67.4165C17.8424 67.2375 18.0931 66.9868 18.2864 66.6646ZM31.1373 60.7402C31.037 60.7438 30.8831 60.7725 30.6754 60.8262C30.4677 60.8799 30.3191 60.9354 30.2296 60.9927C30.1007 61.0822 30.013 61.2541 29.9664 61.5083C29.9234 61.7625 29.902 62.0848 29.902 62.4751V68.0557H29.4347L24.8155 61.8198V65.7515C24.8155 66.1919 24.8424 66.5303 24.8961 66.7666C24.9534 67.0029 25.0393 67.1712 25.1539 67.2715C25.2363 67.3503 25.4063 67.4237 25.6642 67.4917C25.922 67.5597 26.0921 67.5955 26.1744 67.5991V67.9805H23.0484V67.5991C23.1451 67.592 23.308 67.5579 23.5372 67.4971C23.7664 67.4326 23.9096 67.3753 23.9669 67.3252C24.0922 67.2249 24.1782 67.0728 24.2247 66.8687C24.2713 66.661 24.2945 66.3083 24.2945 65.8105V62.0562C24.2945 61.8914 24.2659 61.7267 24.2086 61.562C24.1513 61.3973 24.0743 61.2702 23.9776 61.1807C23.8487 61.0625 23.6733 60.9622 23.4513 60.8799C23.2328 60.7939 23.0556 60.7474 22.9195 60.7402V60.3589H25.0948L29.381 66.1704V62.5449C29.381 62.1009 29.3523 61.7607 29.295 61.5244C29.2377 61.2845 29.1554 61.1252 29.0479 61.0464C28.9477 60.9784 28.783 60.9121 28.5538 60.8477C28.3282 60.7832 28.1563 60.7474 28.0382 60.7402V60.3589H31.1373V60.7402ZM37.2904 67.9805H33.8583V67.5991C33.955 67.592 34.0946 67.5812 34.2772 67.5669C34.4599 67.5526 34.5888 67.5311 34.664 67.5024C34.7821 67.4559 34.8681 67.3932 34.9218 67.3145C34.9755 67.2321 35.0023 67.1193 35.0023 66.9761V61.4546C35.0023 61.3293 34.9826 61.2254 34.9433 61.1431C34.9039 61.0571 34.8108 60.9855 34.664 60.9282C34.5565 60.8853 34.4205 60.8459 34.2558 60.8101C34.0946 60.7707 33.9621 60.7474 33.8583 60.7402V60.3589H37.2904V60.7402C37.1794 60.7438 37.0469 60.7581 36.893 60.7832C36.739 60.8047 36.6047 60.8333 36.4901 60.8691C36.3541 60.9121 36.2628 60.9819 36.2162 61.0786C36.1697 61.1753 36.1464 61.2827 36.1464 61.4009V66.917C36.1464 67.0352 36.1715 67.1408 36.2216 67.2339C36.2753 67.3234 36.3648 67.395 36.4901 67.4487C36.5653 67.4774 36.6871 67.5096 36.8554 67.5454C37.0272 67.5776 37.1723 67.5955 37.2904 67.5991V67.9805ZM46.6394 62.4268H46.2687C46.2365 62.2979 46.1774 62.1457 46.0915 61.9702C46.0091 61.7912 45.916 61.6229 45.8122 61.4653C45.7048 61.3006 45.5866 61.1574 45.4577 61.0356C45.3324 60.9103 45.2106 60.8387 45.0925 60.8208C44.9815 60.8065 44.8418 60.7957 44.6735 60.7886C44.5052 60.7814 44.3495 60.7778 44.2062 60.7778H43.8947V66.874C43.8947 66.9922 43.9198 67.1014 43.9699 67.2017C44.0201 67.2983 44.1078 67.3735 44.2331 67.4272C44.2976 67.4523 44.4318 67.4863 44.6359 67.5293C44.8436 67.5723 45.0048 67.5955 45.1193 67.5991V67.9805H41.5207V67.5991C41.621 67.592 41.7731 67.5776 41.9772 67.5562C42.1849 67.5347 42.3282 67.5078 42.4069 67.4756C42.5251 67.429 42.611 67.3628 42.6647 67.2769C42.722 67.1873 42.7507 67.0692 42.7507 66.9224V60.7778H42.4392C42.3282 60.7778 42.1903 60.7814 42.0256 60.7886C41.8609 60.7922 41.7033 60.8029 41.5529 60.8208C41.4348 60.8351 41.3112 60.9067 41.1823 61.0356C41.057 61.161 40.9406 61.3042 40.8332 61.4653C40.7258 61.6265 40.6309 61.7983 40.5485 61.981C40.4662 62.16 40.4089 62.3086 40.3767 62.4268H40.0007V60.3589H46.6394V62.4268ZM55.6123 61.2612C55.9489 61.6121 56.2121 62.0365 56.4019 62.5342C56.5916 63.0283 56.6865 63.5762 56.6865 64.1777C56.6865 64.7829 56.5898 65.3325 56.3965 65.8267C56.2031 66.3208 55.9346 66.7415 55.5908 67.0889C55.2578 67.4326 54.8711 67.6976 54.4307 67.8838C53.9902 68.07 53.5212 68.1631 53.0234 68.1631C52.4935 68.1631 52.0029 68.0646 51.5518 67.8677C51.1042 67.6672 50.7192 67.3896 50.397 67.0352C50.0747 66.6878 49.8205 66.2671 49.6343 65.7729C49.4517 65.2752 49.3604 64.7435 49.3604 64.1777C49.3604 63.5583 49.457 63.0068 49.6504 62.5234C49.8438 62.0365 50.1105 61.6157 50.4507 61.2612C50.7873 60.9103 51.1776 60.6418 51.6216 60.4556C52.0692 60.2694 52.5365 60.1763 53.0234 60.1763C53.5283 60.1763 54.0046 60.2712 54.4521 60.4609C54.8997 60.6507 55.2865 60.9175 55.6123 61.2612ZM54.812 66.6646C55.0125 66.3387 55.1576 65.9699 55.2471 65.5581C55.3402 65.1463 55.3867 64.6862 55.3867 64.1777C55.3867 63.6549 55.3348 63.1751 55.231 62.7383C55.1307 62.3014 54.9821 61.929 54.7852 61.6211C54.5882 61.3167 54.3411 61.0804 54.0439 60.9121C53.7467 60.7402 53.4066 60.6543 53.0234 60.6543C52.5938 60.6543 52.2285 60.7528 51.9277 60.9497C51.627 61.1466 51.3817 61.4098 51.1919 61.7393C51.0129 62.0544 50.8786 62.4232 50.7891 62.8457C50.7031 63.2682 50.6602 63.7122 50.6602 64.1777C50.6602 64.6934 50.7067 65.1589 50.7998 65.5742C50.8929 65.9896 51.0397 66.3584 51.2402 66.6807C51.4336 66.9958 51.6771 67.2428 51.9707 67.4219C52.2643 67.5973 52.6152 67.6851 53.0234 67.6851C53.4066 67.6851 53.7521 67.5955 54.0601 67.4165C54.368 67.2375 54.6187 66.9868 54.812 66.6646ZM67.2654 67.9805H65.2137C64.7589 67.2679 64.3471 66.652 63.9783 66.1328C63.6131 65.6136 63.2156 65.0783 62.7859 64.5269H62.0071V66.9438C62.0071 67.0692 62.0268 67.1802 62.0662 67.2769C62.1056 67.37 62.1897 67.4416 62.3187 67.4917C62.3831 67.5168 62.4959 67.54 62.657 67.5615C62.8182 67.583 62.9542 67.5955 63.0652 67.5991V67.9805H59.8426V67.5991C59.9285 67.592 60.0521 67.5794 60.2132 67.5615C60.3779 67.5436 60.4925 67.5203 60.5569 67.4917C60.6644 67.4451 60.7413 67.3771 60.7879 67.2876C60.838 67.1981 60.8631 67.0835 60.8631 66.9438V61.4331C60.8631 61.3078 60.8452 61.1968 60.8094 61.1001C60.7736 61.0034 60.6894 60.93 60.5569 60.8799C60.4674 60.8477 60.351 60.819 60.2078 60.7939C60.0646 60.7653 59.9428 60.7474 59.8426 60.7402V60.3589H63.3606C63.6829 60.3589 63.9855 60.3929 64.2684 60.4609C64.5512 60.5254 64.8073 60.631 65.0364 60.7778C65.2584 60.9211 65.4357 61.109 65.5682 61.3418C65.7007 61.571 65.7669 61.8485 65.7669 62.1743C65.7669 62.4679 65.7221 62.7275 65.6326 62.9531C65.5431 63.1787 65.4106 63.3739 65.2352 63.5386C65.074 63.6925 64.8807 63.8268 64.6551 63.9414C64.4295 64.0524 64.1806 64.1473 63.9085 64.2261C64.2845 64.7238 64.596 65.1427 64.8431 65.4829C65.0937 65.8231 65.3999 66.2367 65.7615 66.7236C65.9191 66.9385 66.0605 67.0978 66.1858 67.2017C66.3147 67.3019 66.4419 67.3843 66.5672 67.4487C66.6603 67.4953 66.7767 67.5311 66.9163 67.5562C67.056 67.5812 67.1723 67.5955 67.2654 67.5991V67.9805ZM64.4402 62.2979C64.4402 61.8359 64.3077 61.4707 64.0428 61.2021C63.7778 60.93 63.4036 60.7939 62.9202 60.7939H62.0071V64.0649H62.7107C63.2049 64.0649 63.6167 63.9074 63.9461 63.5923C64.2755 63.2736 64.4402 62.8421 64.4402 62.2979ZM81.9027 63.5332C81.6915 63.5511 81.4784 63.5941 81.2636 63.6621C81.0487 63.7266 80.884 63.8304 80.7694 63.9736C80.6942 64.0596 80.6173 64.1867 80.5385 64.355C80.4633 64.5233 80.372 64.722 80.2645 64.9512C80.1571 65.1803 80.0479 65.4059 79.9369 65.6279C79.8259 65.8499 79.6827 66.0719 79.5072 66.2939C79.6505 66.4658 79.8259 66.6538 80.0336 66.8579C80.2413 67.0584 80.4185 67.2035 80.5653 67.293C80.7086 67.3753 80.9109 67.4451 81.1723 67.5024C81.4372 67.5597 81.6539 67.592 81.8222 67.5991V67.9805H79.6093L78.809 67.0674C78.6908 67.1963 78.5548 67.3306 78.4008 67.4702C78.2504 67.6063 78.091 67.7244 77.9228 67.8247C77.7366 67.9321 77.5486 68.0163 77.3588 68.0771C77.1726 68.138 76.9524 68.1685 76.6981 68.1685C76.4332 68.1685 76.17 68.1291 75.9086 68.0503C75.6472 67.9751 75.4091 67.8534 75.1942 67.6851C74.9866 67.5203 74.8183 67.3091 74.6894 67.0513C74.5604 66.7935 74.496 66.4855 74.496 66.1274C74.496 65.6834 74.6124 65.2824 74.8451 64.9243C75.0814 64.5627 75.5201 64.1795 76.161 63.7749C75.871 63.3918 75.6454 63.0605 75.4843 62.7812C75.3231 62.502 75.2426 62.1886 75.2426 61.8413C75.2426 61.5942 75.2909 61.3687 75.3876 61.1646C75.4879 60.9569 75.6275 60.776 75.8065 60.6221C75.9713 60.4824 76.1718 60.3732 76.4081 60.2944C76.6444 60.2157 76.8843 60.1763 77.1278 60.1763C77.4143 60.1763 77.6649 60.2228 77.8798 60.3159C78.0982 60.4054 78.2755 60.5236 78.4115 60.6704C78.5368 60.8065 78.6317 60.964 78.6962 61.1431C78.7642 61.3221 78.7982 61.5011 78.7982 61.6802C78.7982 62.1099 78.664 62.4805 78.3954 62.792C78.1304 63.0999 77.7634 63.3774 77.2943 63.6245C77.6309 64.0793 77.9604 64.4946 78.2826 64.8706C78.6049 65.243 78.9146 65.61 79.2118 65.9717C79.4517 65.5885 79.6379 65.2287 79.7704 64.8921C79.9029 64.5519 79.9691 64.2529 79.9691 63.9951C79.9691 63.8805 79.885 63.791 79.7167 63.7266C79.552 63.6585 79.3228 63.5941 79.0292 63.5332V63.1519H81.9027V63.5332ZM78.1054 61.7876C78.1054 61.4224 78.0248 61.1431 77.8637 60.9497C77.7025 60.7528 77.4734 60.6543 77.1762 60.6543C77.0079 60.6543 76.8682 60.6883 76.7572 60.7563C76.6462 60.8244 76.5513 60.9103 76.4726 61.0142C76.4009 61.1144 76.349 61.2218 76.3168 61.3364C76.2846 61.451 76.2685 61.5531 76.2685 61.6426C76.2685 61.8896 76.3329 62.1403 76.4618 62.3945C76.5907 62.6452 76.7912 62.9495 77.0634 63.3076C77.4322 63.0999 77.6972 62.8761 77.8583 62.6362C78.023 62.3927 78.1054 62.1099 78.1054 61.7876ZM78.5243 66.7559C78.1913 66.3333 77.8153 65.8714 77.3964 65.3701C76.981 64.8652 76.648 64.4391 76.3974 64.0918C76.1073 64.2923 75.9014 64.5286 75.7797 64.8008C75.6615 65.0693 75.6024 65.3773 75.6024 65.7246C75.6024 66.2116 75.7403 66.6162 76.016 66.9385C76.2953 67.2572 76.6677 67.4165 77.1332 67.4165C77.3946 67.4165 77.6506 67.361 77.9013 67.25C78.1555 67.1354 78.3632 66.9707 78.5243 66.7559ZM98.667 67.9805H95.2993V67.5991C95.4211 67.5955 95.5768 67.583 95.7666 67.5615C95.96 67.54 96.0924 67.5096 96.1641 67.4702C96.2751 67.4022 96.3556 67.3252 96.4058 67.2393C96.4595 67.1497 96.4863 67.0387 96.4863 66.9062V61.3633H96.4058L93.8062 67.8569H93.5376L91.0615 61.229H90.9917V65.7783C90.9917 66.2188 91.0186 66.5535 91.0723 66.7827C91.1296 67.0119 91.2155 67.1766 91.3301 67.2769C91.4089 67.3521 91.5718 67.4237 91.8188 67.4917C92.0659 67.5597 92.2271 67.5955 92.3022 67.5991V67.9805H89.2246V67.5991C89.3857 67.5848 89.554 67.5579 89.7295 67.5186C89.9085 67.4792 90.0464 67.4201 90.1431 67.3413C90.2684 67.241 90.3543 67.0871 90.4009 66.8794C90.4474 66.6717 90.4707 66.3244 90.4707 65.8374V61.938C90.4707 61.7124 90.4438 61.528 90.3901 61.3848C90.3364 61.2415 90.2594 61.1252 90.1592 61.0356C90.0482 60.939 89.9121 60.8674 89.751 60.8208C89.5898 60.7743 89.4305 60.7474 89.2729 60.7402V60.3589H91.8726L94.0532 66.0737L95.917 61.2935C95.985 61.118 96.0423 60.9354 96.0889 60.7456C96.139 60.5522 96.1659 60.4233 96.1694 60.3589H98.6562V60.7402C98.556 60.7438 98.4271 60.7599 98.2695 60.7886C98.1156 60.8172 98.0028 60.8441 97.9312 60.8691C97.8094 60.9121 97.7271 60.9837 97.6841 61.084C97.6411 61.1842 97.6196 61.2935 97.6196 61.4116V66.9062C97.6196 67.0316 97.6411 67.1372 97.6841 67.2231C97.7271 67.3091 97.8094 67.3843 97.9312 67.4487C97.9956 67.4845 98.1102 67.5186 98.2749 67.5508C98.4396 67.5794 98.5703 67.5955 98.667 67.5991V67.9805ZM109.004 67.9805H105.83V67.5991C106.109 67.5812 106.34 67.5454 106.523 67.4917C106.709 67.438 106.802 67.3717 106.802 67.293C106.802 67.2607 106.798 67.2214 106.791 67.1748C106.784 67.1283 106.773 67.0871 106.759 67.0513L106.125 65.3433H103.456C103.356 65.5939 103.273 65.8123 103.209 65.9985C103.148 66.1847 103.092 66.3566 103.042 66.5142C102.996 66.6681 102.964 66.7935 102.946 66.8901C102.928 66.9868 102.919 67.0656 102.919 67.1265C102.919 67.2697 103.032 67.3807 103.257 67.4595C103.483 67.5382 103.737 67.5848 104.02 67.5991V67.9805H101.152V67.5991C101.245 67.592 101.361 67.5723 101.501 67.54C101.64 67.5042 101.755 67.4577 101.845 67.4004C101.988 67.3037 102.099 67.2035 102.178 67.0996C102.256 66.9922 102.333 66.8454 102.408 66.6592C102.792 65.7031 103.214 64.6289 103.676 63.4365C104.138 62.2441 104.55 61.1825 104.911 60.2515H105.341L107.882 66.8257C107.935 66.9653 107.996 67.0781 108.064 67.1641C108.132 67.25 108.227 67.3341 108.349 67.4165C108.431 67.4666 108.539 67.5096 108.671 67.5454C108.804 67.5776 108.915 67.5955 109.004 67.5991V67.9805ZM105.932 64.8652L104.777 61.9111L103.644 64.8652H105.932ZM119.298 60.7402C119.198 60.7438 119.044 60.7725 118.837 60.8262C118.629 60.8799 118.48 60.9354 118.391 60.9927C118.262 61.0822 118.174 61.2541 118.128 61.5083C118.085 61.7625 118.063 62.0848 118.063 62.4751V68.0557H117.596L112.977 61.8198V65.7515C112.977 66.1919 113.004 66.5303 113.057 66.7666C113.115 67.0029 113.2 67.1712 113.315 67.2715C113.397 67.3503 113.567 67.4237 113.825 67.4917C114.083 67.5597 114.253 67.5955 114.336 67.5991V67.9805H111.21V67.5991C111.306 67.592 111.469 67.5579 111.698 67.4971C111.928 67.4326 112.071 67.3753 112.128 67.3252C112.253 67.2249 112.339 67.0728 112.386 66.8687C112.432 66.661 112.456 66.3083 112.456 65.8105V62.0562C112.456 61.8914 112.427 61.7267 112.37 61.562C112.312 61.3973 112.235 61.2702 112.139 61.1807C112.01 61.0625 111.834 60.9622 111.612 60.8799C111.394 60.7939 111.217 60.7474 111.081 60.7402V60.3589H113.256L117.542 66.1704V62.5449C117.542 62.1009 117.513 61.7607 117.456 61.5244C117.399 61.2845 117.317 61.1252 117.209 61.0464C117.109 60.9784 116.944 60.9121 116.715 60.8477C116.489 60.7832 116.317 60.7474 116.199 60.7402V60.3589H119.298V60.7402ZM129.227 67.9805H126.053V67.5991C126.332 67.5812 126.563 67.5454 126.746 67.4917C126.932 67.438 127.025 67.3717 127.025 67.293C127.025 67.2607 127.022 67.2214 127.015 67.1748C127.007 67.1283 126.997 67.0871 126.982 67.0513L126.349 65.3433H123.679C123.579 65.5939 123.496 65.8123 123.432 65.9985C123.371 66.1847 123.316 66.3566 123.266 66.5142C123.219 66.6681 123.187 66.7935 123.169 66.8901C123.151 66.9868 123.142 67.0656 123.142 67.1265C123.142 67.2697 123.255 67.3807 123.48 67.4595C123.706 67.5382 123.96 67.5848 124.243 67.5991V67.9805H121.375V67.5991C121.468 67.592 121.584 67.5723 121.724 67.54C121.864 67.5042 121.978 67.4577 122.068 67.4004C122.211 67.3037 122.322 67.2035 122.401 67.0996C122.48 66.9922 122.557 66.8454 122.632 66.6592C123.015 65.7031 123.437 64.6289 123.899 63.4365C124.361 62.2441 124.773 61.1825 125.135 60.2515H125.564L128.105 66.8257C128.159 66.9653 128.219 67.0781 128.287 67.1641C128.356 67.25 128.45 67.3341 128.572 67.4165C128.655 67.4666 128.762 67.5096 128.894 67.5454C129.027 67.5776 129.138 67.5955 129.227 67.5991V67.9805ZM126.155 64.8652L125 61.9111L123.867 64.8652H126.155ZM139.076 64.9351C138.99 64.9458 138.874 64.9637 138.727 64.9888C138.584 65.0103 138.467 65.0425 138.378 65.0854C138.27 65.1392 138.193 65.2161 138.147 65.3164C138.104 65.4131 138.082 65.5277 138.082 65.6602V66.251C138.082 66.6807 138.084 66.9707 138.088 67.1211C138.095 67.2715 138.102 67.395 138.109 67.4917C137.633 67.7065 137.158 67.8713 136.686 67.9858C136.213 68.1004 135.749 68.1577 135.295 68.1577C134.808 68.1577 134.339 68.0664 133.887 67.8838C133.436 67.7012 133.042 67.4416 132.706 67.105C132.366 66.7648 132.095 66.3512 131.895 65.8643C131.694 65.3773 131.594 64.833 131.594 64.2314C131.594 63.6514 131.689 63.1143 131.879 62.6201C132.072 62.1224 132.344 61.6909 132.695 61.3257C133.035 60.9676 133.44 60.6901 133.909 60.4932C134.382 60.2926 134.886 60.1924 135.424 60.1924C135.853 60.1924 136.227 60.2443 136.546 60.3481C136.865 60.452 137.146 60.5773 137.389 60.7241L137.61 60.3589H138.039L138.088 63.0229H137.647C137.572 62.7293 137.479 62.4411 137.368 62.1582C137.257 61.8717 137.114 61.6157 136.938 61.3901C136.763 61.1646 136.548 60.9855 136.294 60.853C136.043 60.717 135.742 60.6489 135.391 60.6489C135.008 60.6489 134.666 60.7277 134.365 60.8853C134.065 61.0392 133.803 61.2702 133.581 61.5781C133.363 61.8753 133.195 62.2459 133.076 62.6899C132.958 63.134 132.899 63.6299 132.899 64.1777C132.899 64.6611 132.956 65.1177 133.071 65.5474C133.189 65.9735 133.359 66.3423 133.581 66.6538C133.803 66.9725 134.081 67.2231 134.414 67.4058C134.747 67.5884 135.125 67.6797 135.547 67.6797C135.862 67.6797 136.149 67.6313 136.406 67.5347C136.668 67.438 136.852 67.3359 136.96 67.2285C136.988 67.0423 137.003 66.8543 137.003 66.6646C137.006 66.4748 137.008 66.3136 137.008 66.1812V65.7622C137.008 65.6118 136.987 65.4793 136.944 65.3647C136.904 65.2466 136.82 65.1606 136.691 65.1069C136.573 65.0532 136.412 65.0138 136.208 64.9888C136.007 64.9601 135.85 64.9422 135.735 64.9351V64.543H139.076V64.9351ZM148.291 65.7354L148.146 67.9805H141.818V67.5991C141.926 67.592 142.069 67.5776 142.248 67.5562C142.427 67.5311 142.543 67.506 142.597 67.481C142.712 67.4272 142.791 67.3574 142.833 67.2715C142.88 67.1855 142.903 67.0763 142.903 66.9438V61.4653C142.903 61.3472 142.884 61.2433 142.844 61.1538C142.805 61.0607 142.722 60.9855 142.597 60.9282C142.5 60.8817 142.37 60.8405 142.205 60.8047C142.044 60.7689 141.915 60.7474 141.818 60.7402V60.3589H147.716V62.1958H147.313C147.241 61.9237 147.086 61.6354 146.846 61.3311C146.609 61.0231 146.384 60.8548 146.169 60.8262C146.058 60.8118 145.925 60.8011 145.771 60.7939C145.618 60.7868 145.442 60.7832 145.245 60.7832H144.047V63.8125H144.907C145.182 63.8125 145.383 63.7874 145.508 63.7373C145.637 63.6836 145.75 63.5959 145.847 63.4741C145.925 63.3703 145.992 63.2324 146.045 63.0605C146.103 62.8851 146.14 62.7204 146.158 62.5664H146.561V65.5474H146.158C146.144 65.3755 146.104 65.1947 146.04 65.0049C145.979 64.8115 145.915 64.6719 145.847 64.5859C145.736 64.4463 145.609 64.355 145.465 64.312C145.326 64.269 145.139 64.2476 144.907 64.2476H144.047V66.5356C144.047 66.7648 144.063 66.9456 144.096 67.0781C144.128 67.2106 144.191 67.3109 144.284 67.3789C144.377 67.4469 144.504 67.4917 144.665 67.5132C144.826 67.5311 145.055 67.54 145.353 67.54C145.471 67.54 145.626 67.54 145.82 67.54C146.013 67.54 146.176 67.5329 146.309 67.5186C146.445 67.5042 146.584 67.4792 146.728 67.4434C146.874 67.404 146.978 67.3521 147.039 67.2876C147.204 67.1157 147.376 66.8561 147.555 66.5088C147.737 66.1579 147.854 65.9001 147.904 65.7354H148.291Z" fill="black"/>
</svg>
