<svg width="51" height="55" viewBox="49 0 51 55" fill="none" xmlns="http://www.w3.org/2000/svg">
<path d="M99.3762 7.69324V44.9397C97.0701 48.5891 93.9898 51.6872 90.3533 54.0147V29.1513C90.3231 25.7984 89.2215 22.543 87.2095 19.8602L90.3533 16.7164L96.8312 10.245L99.3762 7.69324Z" fill="#263A96"/>
<path d="M99.3764 0V1.31696L85.8425 14.8463L84.0193 16.6678L80.9435 19.7436L74.564 26.1209L72.3086 23.8662L68.3477 19.9056L68.1845 19.7436L58.7747 10.3358L55.486 7.05366L49.7517 1.31696V0H61.1922L74.564 13.3673L87.9358 0H99.3764Z" fill="#263A96"/>
<path d="M85.8425 29.3133C85.8434 31.3507 85.2917 33.3502 84.2462 35.099C83.2006 36.8478 81.7004 38.2806 79.9051 39.2449C78.1098 40.2092 76.0866 40.6689 74.0507 40.5752C72.0148 40.4814 70.0425 39.8377 68.3435 38.7125C66.789 37.6857 65.5134 36.2897 64.6308 34.6495C63.7482 33.0092 63.286 31.1758 63.2857 29.3133C63.2804 27.1022 63.9323 24.9393 65.1586 23.0991L74.5609 32.4982L76.1398 30.9198L76.1809 30.8755L76.2079 30.8485L76.8163 30.2392L77.7501 29.3101L83.9664 23.0916C85.1926 24.9348 85.8454 27.0997 85.8425 29.3133Z" fill="#7185DD"/>
<path d="M61.9184 19.8613C59.9049 22.5432 58.8032 25.7992 58.7746 29.1524V54.0179C57.6237 53.2811 56.5258 52.4645 55.4892 51.5741C54.3432 50.5958 53.2767 49.5279 52.3 48.3806C51.3687 47.2973 50.5181 46.1472 49.7549 44.9397V7.69861L52.3 10.2418L58.7778 16.7174L61.9184 19.8613Z" fill="#7185DD"/>
<path d="M80.9435 19.7436L84.0192 16.6678L85.8424 14.8463L99.3763 1.31696V0H87.9358L74.564 13.3673V26.1209L80.9435 19.7436Z" fill="#7185DD"/>
<path d="M76.8195 40.3622C78.2335 40.0759 79.578 39.517 80.7782 38.7168C82.0146 37.9011 83.0779 36.8498 83.9075 35.6229C84.737 34.3961 85.3164 33.0177 85.6126 31.5668C85.9089 30.1159 85.916 28.6208 85.6337 27.1671C85.3514 25.7134 84.7852 24.3296 83.9674 23.0948L77.7522 29.3134L76.8185 30.2425L76.21 30.8507L76.183 30.8788L76.1419 30.9231L74.563 32.5015V40.588C75.3209 40.5889 76.0769 40.5132 76.8195 40.3622V40.3622Z" fill="#263A96"/>
</svg>
